<?xml version="1.0" encoding="UTF-8"?>
<svg width="68.629mm" height="32.336mm" version="1.1" viewBox="0 0 68.629 32.336" xmlns="http://www.w3.org/2000/svg" xmlns:cc="http://creativecommons.org/ns#" xmlns:dc="http://purl.org/dc/elements/1.1/" xmlns:rdf="http://www.w3.org/1999/02/22-rdf-syntax-ns#" xmlns:xlink="http://www.w3.org/1999/xlink">
 <defs>
  <linearGradient id="linearGradient3555">
   <stop stop-color="#d49f1b" offset="0"/>
   <stop stop-color="#dbdad3" offset="1"/>
  </linearGradient>
  <linearGradient id="linearGradient3557" x1="41.303" x2="115.7" y1="160.95" y2="159.73" gradientUnits="userSpaceOnUse" xlink:href="#linearGradient3555"/>
 </defs>
 <metadata>
  <rdf:RDF>
   <cc:Work rdf:about="">
    <dc:format>image/svg+xml</dc:format>
    <dc:type rdf:resource="http://purl.org/dc/dcmitype/StillImage"/>
    <dc:title/>
   </cc:Work>
  </rdf:RDF>
 </metadata>
 <g transform="translate(-33.569 -142.67)">
  <g fill="url(#linearGradient3557)" stroke-width=".265">
   <path d="m33.569 147.47c1.9542-0.0889 3.9131-0.0182 5.8665-0.12655 0.55594-0.0308 1.1102-0.0865 1.6653-0.12969 1.4911-0.12775 2.9602-0.4067 4.4238-0.70704 0.56673-0.1163 1.2055-0.3048 1.8017-0.26098 0.18448 0.0135 0.35779 0.0941 0.53668 0.14119 0.11076 0.12276 0.25834 0.2204 0.33228 0.3683 0.19779 0.39565 0.22346 1.1539 0.22186 1.543-0.0053 1.2809-0.2175 2.5558-0.40818 3.8178-0.54391 3.2652-1.348 6.4791-2.1291 9.6936-0.13791 0.57898-0.27275 1.1587-0.41374 1.7369-0.04344 0.17818-0.71705 2.872-0.78336 3.1198-0.17599 0.65775-0.54053 1.9422-0.7965 2.5928-0.14957 0.38018-0.34222 0.74198-0.51333 1.113-0.81405 1.4786-1.9394 2.7724-3.3701 3.6825-0.18882 0.12012-0.39058 0.21857-0.58587 0.32785 0.60175-0.37082 1.2426-0.68466 1.8052-1.1125 0.12747-0.0969-0.31059 0.0871-0.47038 0.0976-0.7454 0.049-1.3054-0.40278-1.8434-0.8466-0.49632-0.54994-1.1638-1.2668-1.1072-2.0781 0.0085-0.12213 0.06093-0.23716 0.09139-0.35574 0.09439-0.10007 0.17594-0.21405 0.28317-0.30023 0.14364-0.11543 0.62151-0.39613 0.46411-0.30033-0.54874 0.33398-1.1587 0.58745-1.6382 1.0149-0.23325 0.20795 0.57903-0.23642 0.87556-0.33499 0.87252-0.29003 1.4016-0.39005 2.3102-0.60223 1.7466-0.43031 3.5516-0.62135 5.2806-1.1274 1.0457-0.30604 1.2211-0.42944 2.1948-0.87841 2.5981-1.4185 4.6369-2.5565 6.2364-5.0267 0.1832-0.28291 0.33826-0.58309 0.50738-0.87463 0.42125-0.76497 0.64712-1.6066 0.92363-2.4277 0.05202-0.15446 0.11012-0.30682 0.16793-0.45921 0.02289-0.0603 0.13271-0.20565 0.07409-0.17874-0.87308 0.40084-1.7078 0.88054-2.5616 1.3208-0.32818 1.3102-0.70406 2.6027-0.95676 3.931-0.06572 0.63397-0.56314 2.183 0.01894 2.6777 0.1277 0.10852 0.30008 0.14927 0.45012 0.22391 1.0758 0.13208 2.1026-0.24537 3.0164-0.7924 3.0685-1.8368 2.2021-1.1021 3.685-2.5096 0.98101-1.0716 1.6872-2.3523 2.2-3.704 0.04435-0.12036 0.0675-0.25082 0.13305-0.36107 0.01934-0.0325 0.13898-0.0593 0.10592-0.0409-0.84437 0.46972-1.75 0.84007-2.5407 1.3953-0.11933 0.0838-0.03739 0.28933-0.06276 0.43292-0.07428 0.42041-0.16738 0.83728-0.25105 1.2559-0.06161 0.63357-0.58933 2.1467-0.1336 2.6947 0.09719 0.11687 0.24575 0.17898 0.36862 0.26846 0.18603 0.0316 0.36943 0.0986 0.55808 0.0948 0.48-0.01 1.1662-0.23362 1.5696-0.44915 1.0695-0.57142 2.1278-1.1665 3.1549-1.811 0.6798-0.42657 1.308-1.1383 1.8584-1.6989 2.1354-2.5207 3.5422-5.5414 4.8816-8.5339 1.1544-2.5965 1.8842-5.344 2.4239-8.1253 0.05902-0.49611 0.40165-1.7898-0.24817-2.1124-0.35432-0.1759-0.59656-0.0233-0.93897 0.0788-0.943 0.56441-1.9201 1.0754-2.829 1.6932-0.25496 0.1733-0.84883 1.0804-0.97517 1.2909-0.58704 0.97791-0.9901 2.0437-1.4178 3.0963-0.82341 2.1294-1.5947 4.2862-2.1122 6.5121-0.36684 1.5751-0.58585 3.1735-0.69743 4.7851-0.10366 1.336-0.0048 2.679 0.2723 3.988 0.26606 0.89889 0.46829 1.9545 1.144 2.6589 0.11935 0.12443 0.26554 0.22001 0.39831 0.33002 0.17129 0.0769 0.33347 0.17873 0.51388 0.23079 0.86624 0.24996 1.9268 0.13451 2.7562-0.18831 0.23716-0.0923 0.45767-0.22269 0.6865-0.33404 0.96808-0.59555 1.9692-1.1404 2.9043-1.7866 0.22045-0.15236 0.3745-0.38467 0.54119-0.59449 0.69734-0.87773 1.0878-1.9146 1.4434-2.9631 0.20084-0.63786 0.30731-1.2982 0.45068-1.9495 0.02421-0.10994 0.04162-0.22243 0.08126-0.32779 0.01222-0.0325 0.10125-0.0928 0.07076-0.0763-0.83756 0.45383-1.6644 0.92715-2.4966 1.3907 0.0078 0.11274 0.02466 0.22523 0.02326 0.33823-0.0021 0.17443-0.07557 0.98484-0.08728 1.1107-0.05941 0.63824-0.12072 1.2759-0.17379 1.9147-0.01995 0.71523-0.23434 1.5161 0.07385 2.2013 0.04808 0.1069 0.11818 0.20245 0.17728 0.30367 0.09713 0.0882 0.1826 0.19124 0.29139 0.26456 1.0234 0.68982 2.3766 0.10757 3.3965-0.25618 2.0009-1 4.1101-1.996 5.6808-3.6314 0.57871-0.60252 0.69756-0.84234 1.1546-1.5241 0.41009-0.8436 1.2195-2.0269 0.81948-3.0178-0.05313-0.13163-0.15098-0.24043-0.22648-0.36064-0.11119-0.0908-0.2092-0.20068-0.33358-0.27234-0.60026-0.34581-1.4156-0.29615-2.0059 0.0448-0.94763 0.54743-1.8674 1.1417-2.8012 1.7125-0.93503 1.0401-1.199 2.4338-1.4393 3.7683-0.05232 0.74872-0.26915 1.7494 0.31906 2.3652 0.10705 0.11208 0.24761 0.18649 0.37141 0.27973 0.1779 0.0666 0.35068 0.14895 0.53369 0.19986 0.84701 0.23562 2.0069 0.32682 2.8751 0.19792 0.23474-0.0349 0.4627-0.10574 0.69404-0.15861 1.5294-0.62369 3.0623-1.4066 4.1714-2.6506 0.63234-0.70922 1.1328-1.5145 1.6358-2.3159 0.55301-0.86105 1.0425-1.7867 1.771-2.5197 0.118-0.11871 0.5268-0.40841 0.37961-0.32871-0.66885 0.36212-1.3018 0.78694-1.9527 1.1804 0.11592-0.0237 0.22945-0.0722 0.34776-0.0711 0.63174 6e-3 1.0757 0.66786 1.2938 1.18 0.07909 0.18573 0.12364 0.38433 0.18546 0.5765 0.2585 1.5524-0.27482 3.0619-0.71684 4.5295-0.03704 0.11028-0.21974 0.72271-0.33865 0.87747-0.03074 0.04-0.18576 0.0781-0.14128 0.0543 0.84435-0.45218 1.7436-0.81069 2.5419-1.3399 0.10735-0.0712 0.02993-0.25619 0.05608-0.38231 0.04207-0.2029 0.09892-0.40246 0.14837-0.60369 0.46367-1.733 1.3565-3.2301 2.5201-4.5783 0.15001-0.14398 0.29125-0.29768 0.45004-0.43191 0.13234-0.11188 0.57215-0.3899 0.42128-0.30464-0.65813 0.37191-1.3224 0.73741-1.9452 1.1658-0.10336 0.0711 0.24219-0.0778 0.3676-0.0806 0.34107-8e-3 0.44904 0.10362 0.73678 0.26247 0.86276 0.7852 1.1192 1.9632 1.2578 3.0762 0.12617 0.85217-0.11867 1.6728-0.26609 2.5023-0.01188 0.4884 0.06564 1.2034 0.66488 1.3313 0.15881 0.0339 0.32477 2e-3 0.48715 4e-3 2.2847-0.86187 4.1544-2.2334 5.3691-4.3162 0.13918-0.23866 0.2478-0.49387 0.3717-0.7408l-2.4211 1.0938c-0.44384 0.86603-0.83472 1.4929-1.5161 2.2078-0.21905 0.22984-1.0072 0.71164-0.69555 0.65075 0.59524-0.11632 1.0726-0.56701 1.6186-0.83112 0.18272-0.0884-0.35192 0.20234-0.52788 0.30351-0.12752 0.0311-0.2514 0.0882-0.38256 0.0933-0.51192 0.0198-0.51576-0.66732-0.48937-1.004 0.15264-0.84668 0.33267-1.6914 0.17913-2.5554-0.18767-1.1897-0.46434-2.4223-1.3505-3.2983-0.312-0.21091-0.44999-0.35551-0.83214-0.41716-0.14253-0.023-0.30373-0.0571-0.43307 7e-3 -1.47 0.72912-2.5296 1.2131-3.5218 2.3278-1.11 1.4052-1.9882 2.9651-2.4923 4.6928-0.06083 0.21579-0.12929 0.42956-0.18249 0.64735-0.03615 0.14802-0.23395 0.48267-0.08532 0.44909 2.5053-0.56607 2.4231-0.44432 2.8479-2.0094 0.41792-1.5235 0.94981-3.0833 0.66252-4.6801-0.06695-0.20786-0.117-0.42195-0.20084-0.62359-0.25429-0.61151-0.73185-1.3208-1.4294-1.4687-0.1373-0.0291-0.28062-7e-3 -0.42092-0.01-0.90233 0.52302-1.8241 1.0139-2.707 1.569-0.17698 0.11129-0.61232 0.67656-0.71303 0.81324-0.48399 0.6569-0.88427 1.3683-1.3184 2.0577-0.51121 0.79244-1.019 1.5856-1.6804 2.2656-0.20011 0.20573-0.91298 0.65974-0.63775 0.57843 0.60406-0.17844 1.1166-0.58319 1.6703-0.88347 0.20718-0.11236-0.42045 0.21309-0.63068 0.31963-0.22438 0.0655-0.444 0.15031-0.67316 0.1964-1.068 0.21478-2.217 0.04-3.2429-0.27993-0.10349-0.0662-0.22112-0.11425-0.31048-0.19855-0.55662-0.52507-0.30211-1.5019-0.27224-2.1528 0.23266-1.3015 0.51964-2.6503 1.5267-3.5876-0.61003 0.32521-1.2191 0.65227-1.8301 0.97563-0.16019 0.0848 0.30894-0.19351 0.4776-0.25986 0.15442-0.0608 0.31878-0.0987 0.48357-0.11829 0.41704-0.0494 0.80074 0.0414 1.1252 0.30585 0.06153 0.0896 0.14323 0.16829 0.18458 0.2688 0.3578 0.86972-0.45387 2.0458-0.81475 2.7726-0.61817 0.88181-1.0687 1.451-1.9225 2.1354-0.26806 0.21487-1.167 0.69047-0.8341 0.6054 0.48697-0.12447 0.89464-0.46122 1.3197-0.72951 0.29183-0.18422-0.61272 0.31776-0.91908 0.47664-0.84125 0.31808-1.8468 0.78704-2.7741 0.55974-0.29943-0.0734-0.36512-0.16007-0.58789-0.33646-0.04946-0.0834-0.10901-0.16153-0.14836-0.25012-0.28613-0.64396-0.07476-1.4056-0.08153-2.0768 0.08782-1.1558 0.25306-2.306 0.30328-3.4631-0.8455 0.36492-1.7038 0.70151-2.5365 1.0948-0.03139 0.0148 0.0013 0.0696-0.0021 0.10412-0.01053 0.10368-0.02471 0.20699-0.04004 0.31007-0.09477 0.63718-0.21984 1.2701-0.41255 1.8858-0.27352 0.77525-0.55823 1.5306-1.0129 2.2231-0.1457 0.2219-0.30451 0.43622-0.47936 0.63596-0.17329 0.19796-0.8152 0.62621-0.56224 0.55391 0.5978-0.17087 1.1015-0.57698 1.6523-0.86547-0.21784 0.1215-0.4266 0.26093-0.65351 0.36449-0.77445 0.35349-1.7697 0.50134-2.6103 0.31747-0.16136-0.0353-0.30979-0.11476-0.46468-0.17213-0.1216-0.0914-0.25566-0.1682-0.36479-0.27417-0.67113-0.6517-0.86393-1.677-1.1101-2.5347-0.2543-1.2866-0.36502-2.6002-0.26208-3.911 0.11484-1.5926 0.33005-3.1727 0.68177-4.7318 0.49647-2.2028 1.2165-4.3496 2.0653-6.4413 0.44995-1.0528 0.87823-2.1174 1.515-3.0761 0.16455-0.24775 0.34216-0.48781 0.53667-0.7128 0.16134-0.18662 0.76042-0.60124 0.52796-0.51866-0.65068 0.23118-1.2169 0.65306-1.8253 0.97958 0.08261-0.0406 0.57002-0.31052 0.7329-0.29834 0.54301 0.0406 0.27104 1.5553 0.25168 1.794-0.44496 2.7514-1.1773 5.4467-2.3078 8.0014-1.3542 2.9952-2.7812 6.0162-4.9985 8.4845-0.32316 0.31051-0.62905 0.64007-0.9695 0.93152-0.30809 0.26376-1.3772 0.75886-0.97259 0.7311 0.51462-0.0353 0.93469-0.45063 1.3497-0.75697 0.22999-0.16977-0.51726 0.24592-0.78671 0.34139-0.20723 0.0734-0.42122 0.13304-0.63893 0.16373-0.15315 0.0216-0.30927-5e-3 -0.46391-8e-3 -0.09246-0.0441-0.20452-0.0604-0.27739-0.13239-0.15892-0.15708-0.1478-0.47829-0.14056-0.66261 0.02447-0.62334 0.1839-1.2344 0.28741-1.8463 0.09389-0.42902 0.19688-0.85604 0.28845-1.2856 0.0351-0.16466 0.26041-0.52822 0.09516-0.49603-2.7931 0.54412-2.2628 0.21263-2.6554 1.4172-0.49014 1.3098-1.1769 2.5448-2.1616 3.5511-0.23102 0.20653-0.99835 0.6726-0.69305 0.61958 0.54933-0.0954 0.98008-0.53487 1.491-0.75815 0.27584-0.12054-0.51201 0.31909-0.78357 0.44899-0.6294 0.30107-1.3089 0.47749-2.0071 0.47101-0.1173-0.0325-0.24851-0.0333-0.35188-0.0975-0.50737-0.31542-0.02721-1.9818-6.1e-5 -2.4415 0.26832-1.3523 0.63724-2.6786 1.0982-3.9785-0.83339 0.3632-1.6836 0.68992-2.5002 1.0896-0.04298 0.021-0.0064 0.0959-0.01712 0.14254-0.03386 0.14727-0.07546 0.29266-0.11639 0.43812-0.2272 0.80756-0.48657 1.6064-0.894 2.3449-0.55004 0.9124-1.0645 1.6862-1.8193 2.4513-0.25838 0.2619-0.52723 0.51451-0.81136 0.74822-0.29768 0.24486-1.3143 0.64095-0.93139 0.68528 0.45926 0.0532 0.81637-0.43422 1.2246-0.65133-0.93776 0.46019-1.1727 0.6191-2.1854 0.93531-1.7177 0.53632-3.5228 0.72365-5.2709 1.1286-0.85835 0.18262-1.4406 0.28813-2.2724 0.53198-0.29018 0.0851-0.59026 0.15208-0.86002 0.28872-1.0099 0.51151-1.995 1.0719-2.9681 1.6503-0.17217 0.10234-0.32811 0.236-0.45952 0.38715-0.10532 0.12113-0.16002 0.27831-0.24002 0.41746-0.01611 0.14385-0.0534 0.28688-0.04832 0.43153 0.03069 0.87363 0.68207 1.6266 1.2362 2.2327 0.5651 0.48801 1.17 1.0136 1.9607 1.0474 1.1832 0.0506 2.8604-1.3194 3.3542-1.586 1.6433-1.0224 2.896-2.3758 3.7774-4.1114 0.16248-0.37711 0.34539-0.74606 0.48745-1.1313 0.2489-0.67502 0.57254-1.9043 0.74296-2.5875 0.25677-1.0294 0.4887-2.0648 0.73237-3.0973 0.13618-0.57704 0.27126-1.1544 0.40689-1.7315 0.79852-3.2356 1.6355-6.4663 2.2022-9.7529 0.17513-1.1083 0.27189-1.6171 0.38387-2.7227 0.08537-0.84294 0.25595-2.1199-0.14582-2.9259-0.09684-0.19426-0.28148-0.3305-0.42222-0.49576-0.20829-0.0629-0.40827-0.16799-0.62486-0.1887-0.65255-0.0624-1.3002 0.15901-1.92 0.30016-1.4726 0.33538-2.9532 0.64092-4.4606 0.77571-0.54863 0.0436-1.0963 0.1019-1.6459 0.13078-1.8752 0.0985-3.7553 2e-3 -5.6306-0.0361l-2.241 1.6282z"/>
   <path d="m75.838 157.17c-0.4611-0.0136-0.99692 0.11858-1.4075-0.15973-0.08947-0.0607-0.15788-0.14766-0.23682-0.22149-0.21296-0.32857-0.28555-0.64057-0.04087-0.98173 0.29482-0.41109 0.87212-0.65597 0.79044-0.60618-0.56798 0.34619-1.1369 0.69083-1.7053 1.0362 0.60797-0.21386 1.934-0.8645 2.5808-0.56587 0.06563 0.0303 0.10064 0.10381 0.15096 0.15571-0.26593 0.595-0.90182 0.9367-1.4273 1.2722l2.5027-0.98042c0.4657-0.32923 1.1298-0.70925 1.3066-1.3051 0.04035-0.13598-0.01008-0.28351-0.01513-0.42526-0.08353-0.0921-0.14495-0.21071-0.25059-0.27628-0.6823-0.42352-2.0742 0.23553-2.7493 0.44814-0.97074 0.5437-1.9544 1.0649-2.9122 1.6311-0.44291 0.26184-0.8423 0.68297-0.85735 1.2282-0.0099 0.35823 0.11919 0.50938 0.27748 0.80834 0.09179 0.0973 0.17193 0.20718 0.27538 0.29202 0.42704 0.35019 0.93548 0.29151 1.4488 0.29877 0 0 2.2692-1.6487 2.2692-1.6487z"/>
  </g>
 </g>
</svg>
